<svg xmlns="http://www.w3.org/2000/svg" viewBox="0 0 1069.89 186.15"><defs><style>.cls-1{fill:#231f20;}</style></defs><g id="Layer_2" data-name="Layer 2"><g id="Layer_1-2" data-name="Layer 1"><path class="cls-1" d="M70,10.31c31.52,0,44.8,14.87,44.8,36.67,0,15.47-6.74,24.78-19.23,29.74,12.69,5.15,19.83,15.07,19.83,30.53,0,21.41-13.28,36.87-44.8,36.87H11.1c-7.53,0-11.1-3.57-11.1-10.9v-112c0-7.33,3.57-10.9,11.1-10.9ZM23,66.81H70.58c13.87,0,20.61-5.16,20.61-16.06,0-10.51-6.14-17.45-20.42-17.45H25.57A2.25,2.25,0,0,0,23,35.68Zm0,51.94c0,1.58,1,2.18,2.57,2.18h45.6c14.08,0,20.62-6.54,20.62-17.45,0-11.3-6.94-17.24-20.62-17.24H23Z"/><path class="cls-1" d="M208.35,39.45c26.17,0,36.48,14.67,36.48,34.49v49.17c0,15.07-4,21-21.61,21h-49c-24.78,0-35.09-12.09-35.09-31.91,0-19,9.52-30.14,35.29-30.14h49.76V74.14c0-8.12-4.56-14.47-16.06-14.47H145.51V39.45Zm15.86,78.9V98.72H174.85c-11.11,0-15.07,4.57-15.07,12.3s4.16,12.68,14.67,12.68h44C222.62,123.7,224.21,122.12,224.21,118.35Z"/><path class="cls-1" d="M345.73,39.45V59.67H308.86c-9.32,0-13.48,4.36-13.48,13.48v71h-21V70c0-21,7.73-30.53,28.35-30.53Z"/><path class="cls-1" d="M434.54,39.45c24.78,0,35.29,11.9,35.29,32.12,0,19.23-9.72,30.13-35.49,30.13H384.58v7.53c0,8.33,4.56,14.47,16.06,14.47h64v20.42h-64c-26.17,0-36.48-14.67-36.48-34.49V73.94c0-19.82,10.31-34.49,36.48-34.49Zm-50,45.79h49.17c11.3,0,15.46-4.75,15.46-12.49,0-7.92-4.56-13.08-14.87-13.08h-33.7c-11.5,0-16.06,6.35-16.06,14.47Z"/><path class="cls-1" d="M582.82,39.45V59.67H524.93c-9.71,0-13.68,4-13.68,11.9,0,7.33,3.18,11.3,14.87,11.3h24.59c28.94,0,36.27,13.28,36.27,29.53,0,18.64-9.71,31.72-34.29,31.72H491.83V123.7h60.86c9.71,0,13.68-3.37,13.68-11.49,0-8.33-4.37-11.7-14.87-11.7H526.72c-29,0-36.08-14.47-36.08-30.53,0-18.83,9.71-30.53,34.1-30.53Z"/><path class="cls-1" d="M615.53,39.45V14.67h21.21V39.45h28.94V59.67H636.74v49.56c0,11.7,4.16,15.66,14.07,15.66h14.48v19.23H646.45c-21.61,0-30.92-8.72-30.92-36.08V59.67H601.25V39.45Z"/><path class="cls-1" d="M757.27,39.45V59.67H720.4c-9.32,0-13.48,4.36-13.48,13.48v71h-21V70c0-21,7.74-30.53,28.35-30.53Z"/><path class="cls-1" d="M799.1,0V24.38H777.89V0Zm-.2,39.45V144.12h-21V39.45Z"/><path class="cls-1" d="M896,39.45c27.75,0,45.2,17,45.2,52.34s-17.45,52.33-45.2,52.33H849.65v42h-21V84.25c0-30.13,13.29-44.8,38.46-44.8ZM849.65,123.7h44.21c18.24,0,26.16-9.31,26.16-31.91s-7.92-32.12-26.16-32.12H873.24c-17,0-23.59,7.53-23.59,25.57Z"/><path class="cls-1" d="M1034.6,39.45c24.78,0,35.29,11.9,35.29,32.12,0,19.23-9.71,30.13-35.48,30.13H984.65v7.53c0,8.33,4.56,14.47,16.05,14.47h64v20.42h-64c-26.16,0-36.47-14.67-36.47-34.49V73.94c0-19.82,10.31-34.49,36.47-34.49ZM984.65,85.24h49.16c11.3,0,15.46-4.75,15.46-12.49,0-7.92-4.56-13.08-14.86-13.08H1000.7c-11.49,0-16.05,6.35-16.05,14.47Z"/></g></g></svg>