<svg class="instagram" viewBox="0 0 100 100" id="instagram" xmlns="http://www.w3.org/2000/svg"
  xmlns:xlink="http://www.w3.org/1999/xlink" data-v-feaf584a="">
  <path fill="currentColor"
    d="M49.8522167,35.8128079 C57.5862069,35.8128079 63.8916256,42.1182266 63.8916256,49.8522167 C63.8916256,57.5862069 57.5862069,63.8916256 49.8522167,63.8916256 C42.1182266,63.8916256 35.8128079,57.5862069 35.8128079,49.8522167 C35.8128079,42.1182266 42.1182266,35.8128079 49.8522167,35.8128079 Z M82.4630542,7.10542736e-15 C91.9704433,7.10542736e-15 99.7044335,7.73399015 99.7536946,17.2413793 L99.7536946,82.5123153 C99.7536946,92.0197044 92.0197044,99.7536946 82.5123153,99.7536946 L17.2413793,99.7536946 C7.73399015,99.7536946 7.10542736e-15,92.0197044 7.10542736e-15,82.5123153 L7.10542736e-15,17.2413793 C7.10542736e-15,7.73399015 7.73399015,7.10542736e-15 17.2413793,7.10542736e-15 L82.4630542,7.10542736e-15 Z M49.8522167,78.6699507 C65.7142857,78.6699507 78.6699507,65.7635468 78.6699507,49.8522167 C78.6699507,33.9408867 65.7635468,21.0344828 49.8522167,21.0344828 C33.9408867,21.0344828 21.0344828,33.9408867 21.0344828,49.8522167 C21.0344828,65.7635468 33.9901478,78.6699507 49.8522167,78.6699507 Z M89.2118227,17.635468 C89.2118227,13.6945813 86.0098522,10.4926108 82.0689655,10.4926108 C78.1280788,10.4926108 74.9261084,13.6945813 74.9261084,17.635468 C74.9261084,21.5763547 78.1280788,24.7783251 82.0689655,24.7783251 C86.0098522,24.7783251 89.2118227,21.5763547 89.2118227,17.635468 Z"
    fill-rule="nonzero" data-v-feaf584a=""></path>
</svg>